<?xml version="1.0" standalone="no"?>
<!DOCTYPE svg PUBLIC "-//W3C//DTD SVG 20010904//EN"
 "http://www.w3.org/TR/2001/REC-SVG-20010904/DTD/svg10.dtd">
<svg version="1.0" xmlns="http://www.w3.org/2000/svg"
 width="960.000000pt" height="960.000000pt" viewBox="0 0 960.000000 960.000000"
 preserveAspectRatio="xMidYMid meet">
<metadata>
Created by potrace 1.14, written by Peter Selinger 2001-2017
</metadata>
<g transform="translate(0.000000,960.000000) scale(0.100000,-0.100000)"
fill="#000000" stroke="none">
<path d="M0 4800 l0 -4800 4800 0 4800 0 0 4800 0 4800 -4800 0 -4800 0 0
-4800z m2808 1886 c16 -8 35 -32 45 -58 10 -23 25 -56 32 -73 7 -16 25 -56 39
-88 14 -32 26 -62 26 -66 0 -5 6 -22 14 -38 8 -15 20 -41 26 -58 7 -16 19 -43
26 -60 7 -16 20 -48 29 -70 9 -22 20 -48 25 -57 6 -10 10 -22 10 -27 0 -5 14
-40 31 -78 38 -85 40 -91 79 -188 18 -44 41 -98 50 -120 10 -22 51 -119 90
-215 40 -96 83 -199 96 -228 13 -29 24 -57 24 -61 0 -5 6 -22 14 -38 8 -15 19
-39 25 -53 5 -14 19 -45 29 -70 11 -25 30 -70 42 -100 12 -30 28 -68 35 -85 7
-16 18 -41 23 -55 25 -60 45 -107 57 -135 34 -76 45 -103 45 -109 0 -3 12 -31
26 -63 30 -68 35 -80 64 -153 12 -30 31 -75 42 -100 11 -25 27 -59 34 -77 8
-17 14 -37 14 -45 0 -8 4 -18 8 -24 5 -5 19 -34 32 -64 12 -30 30 -73 40 -95
9 -22 25 -60 35 -85 10 -25 26 -63 35 -85 10 -22 28 -65 40 -95 32 -80 36 -88
69 -163 17 -38 31 -73 31 -78 0 -5 4 -17 10 -27 5 -9 16 -33 24 -52 55 -134
36 -113 172 -186 49 -26 124 -65 166 -87 86 -45 110 -78 90 -123 l-12 -24
-742 2 -743 3 -3 41 c-3 46 2 52 68 78 76 31 83 34 153 65 38 17 74 31 82 31
7 0 28 8 47 17 59 30 68 33 80 33 7 1 23 9 36 19 23 20 22 28 -7 96 -5 11 -17
40 -26 65 -16 42 -34 86 -55 135 -4 11 -15 38 -24 60 -10 22 -21 47 -25 55 -5
9 -12 30 -15 48 -4 17 -12 34 -17 37 -5 4 -9 13 -9 20 0 8 -11 38 -24 67 -13
29 -31 73 -41 98 -26 66 -57 142 -76 185 -5 11 -19 48 -32 83 -42 114 40 102
-723 102 -526 0 -668 -3 -678 -13 -18 -17 -76 -149 -76 -172 0 -7 -6 -26 -14
-42 -8 -15 -19 -39 -24 -53 -6 -14 -17 -41 -25 -60 -8 -19 -22 -55 -30 -80
-22 -62 -104 -260 -111 -267 -3 -4 -6 -15 -6 -25 0 -10 -4 -26 -10 -36 -9 -17
-23 -50 -55 -132 -9 -25 -21 -54 -26 -65 -38 -91 -38 -93 -21 -108 10 -7 33
-20 52 -27 19 -7 49 -19 65 -25 17 -7 77 -32 135 -55 58 -23 125 -52 150 -63
43 -21 45 -24 45 -67 l0 -45 -607 -3 -608 -2 -5 22 c-3 13 -2 36 3 51 8 31 17
37 217 141 134 70 133 70 157 126 11 25 25 58 32 75 7 16 21 50 31 75 9 25 21
52 25 61 4 8 35 82 69 163 34 81 70 166 80 189 10 23 26 62 36 87 9 25 21 52
25 60 4 9 36 83 70 165 59 142 85 202 115 270 7 17 39 93 70 170 56 138 63
155 103 245 10 25 27 65 37 90 10 25 28 68 41 95 12 28 44 102 69 165 47 112
73 174 100 235 7 17 28 66 45 109 18 44 36 87 40 95 4 9 16 36 25 61 10 25 24
59 31 75 7 17 22 53 34 80 12 27 27 63 35 80 7 16 27 66 45 109 18 44 36 87
40 95 4 9 16 36 25 61 10 25 24 59 31 75 7 17 22 53 34 80 12 27 27 63 34 80
8 16 28 66 46 110 19 44 37 84 42 90 4 5 8 16 8 24 0 8 10 25 22 38 20 22 29
23 145 23 87 0 132 -4 151 -14z m2925 3 c26 -14 40 -28 87 -89 19 -25 37 -47
40 -50 3 -3 32 -39 65 -80 33 -41 63 -77 66 -80 4 -3 30 -34 58 -70 28 -36 57
-72 64 -80 18 -22 144 -178 181 -224 17 -22 36 -44 41 -50 6 -6 26 -31 45 -56
19 -25 39 -50 45 -56 5 -6 24 -28 41 -50 56 -70 136 -169 159 -197 6 -7 46
-57 91 -112 160 -199 298 -370 404 -500 60 -73 156 -192 214 -264 226 -280
322 -398 364 -451 24 -30 53 -65 63 -77 10 -13 46 -56 79 -98 34 -41 68 -75
76 -75 12 0 14 160 14 1149 l0 1149 -36 17 c-20 9 -66 28 -103 41 -36 13 -91
33 -121 44 -30 12 -84 33 -120 47 -36 13 -74 27 -85 30 -11 2 -29 9 -40 14
-11 5 -32 13 -47 19 -27 9 -28 13 -28 74 0 41 5 67 14 75 9 8 205 10 717 9
l704 -3 3 -73 3 -72 -128 -61 c-70 -33 -171 -81 -223 -107 l-95 -47 -5 -1710
-5 -1710 -118 -3 -118 -3 -32 34 c-18 19 -41 45 -52 58 -39 48 -120 144 -125
149 -3 3 -32 39 -65 80 -33 41 -69 84 -80 95 -11 11 -36 40 -55 65 -19 25 -37
47 -40 50 -5 4 -125 148 -171 205 -10 11 -66 79 -126 150 -60 72 -140 168
-178 215 -38 47 -71 87 -74 90 -4 3 -40 46 -81 95 -41 50 -77 92 -80 95 -3 3
-21 25 -40 50 -19 25 -40 50 -46 55 -5 6 -30 35 -55 65 -24 30 -48 60 -54 66
-20 23 -55 64 -101 121 -26 32 -66 81 -90 108 -23 28 -78 93 -121 145 -43 52
-82 100 -88 106 -5 6 -26 30 -45 54 -19 24 -60 74 -91 110 -56 66 -270 322
-292 350 -7 9 -34 42 -62 75 -27 33 -59 71 -70 84 -41 49 -58 62 -67 49 -4 -7
-8 -570 -8 -1250 0 -1111 2 -1238 16 -1252 8 -9 23 -16 33 -16 9 0 21 -4 27
-9 5 -5 36 -18 69 -29 34 -11 72 -25 85 -31 14 -5 77 -29 140 -52 63 -23 119
-46 124 -51 6 -4 20 -8 31 -8 27 0 51 -26 60 -63 15 -60 50 -57 -726 -57 -630
0 -709 2 -723 16 -9 8 -16 22 -16 29 0 45 24 62 232 164 117 57 218 109 225
116 19 19 19 3053 1 3078 -11 15 -109 67 -341 184 -90 45 -107 65 -107 124 0
82 -17 79 458 79 289 0 420 -3 435 -11z"/>
<path d="M2519 5842 c-9 -20 -28 -63 -43 -95 -14 -32 -26 -62 -26 -67 0 -6 -4
-18 -10 -28 -5 -9 -16 -35 -25 -57 -9 -22 -22 -53 -30 -70 -7 -16 -20 -48 -30
-70 -9 -22 -20 -49 -25 -60 -4 -11 -23 -56 -40 -99 -18 -44 -36 -87 -40 -95
-4 -9 -16 -36 -25 -61 -10 -25 -26 -63 -35 -85 -10 -22 -28 -65 -40 -95 -13
-30 -27 -59 -32 -65 -4 -5 -8 -15 -8 -23 0 -7 -10 -34 -21 -60 -68 -149 -89
-206 -76 -214 16 -10 1048 -10 1065 1 10 6 11 14 1 37 -22 53 -40 99 -48 119
-13 31 -27 64 -60 138 -17 38 -31 72 -31 76 0 7 -66 165 -90 216 -5 11 -18 43
-29 70 -10 28 -31 77 -45 110 -35 78 -32 70 -121 285 -75 183 -99 230 -113
230 -4 0 -14 -17 -23 -38z"/>
</g>
</svg>
